<svg width="167" height="49" viewBox="0 0 167 49" fill="none" xmlns="http://www.w3.org/2000/svg">
<path d="M72.8936 17.4005H66.8226L68.0836 15.6975V33.8455H64.6516V15.6975L65.9776 17.4005H59.8546V14.6705H72.8936V17.4005ZM74.8455 28.0475V25.6165H84.5045L84.1145 26.2665C84.1145 26.2145 84.1145 26.1581 84.1145 26.0975C84.1145 26.0281 84.1145 25.9718 84.1145 25.9285C84.1145 25.3305 83.9801 24.7715 83.7115 24.2515C83.4428 23.7228 83.0355 23.2981 82.4895 22.9775C81.9435 22.6481 81.2501 22.4835 80.4095 22.4835C79.5775 22.4835 78.8538 22.6611 78.2385 23.0165C77.6318 23.3631 77.1595 23.8658 76.8215 24.5245C76.4921 25.1831 76.3275 25.9718 76.3275 26.8905C76.3275 27.8351 76.4878 28.6498 76.8085 29.3345C77.1291 30.0105 77.5971 30.5305 78.2125 30.8945C78.8365 31.2498 79.5948 31.4275 80.4875 31.4275C81.0941 31.4275 81.6185 31.3711 82.0605 31.2585C82.5025 31.1458 82.8621 30.9941 83.1395 30.8035C83.4255 30.6041 83.6378 30.3918 83.7765 30.1665C83.9238 29.9411 84.0105 29.7158 84.0365 29.4905H87.4425C87.3905 30.0711 87.1955 30.6388 86.8575 31.1935C86.5281 31.7395 86.0645 32.2378 85.4665 32.6885C84.8685 33.1305 84.1405 33.4858 83.2825 33.7545C82.4331 34.0145 81.4625 34.1445 80.3705 34.1445C78.8885 34.1445 77.5928 33.8411 76.4835 33.2345C75.3741 32.6278 74.5075 31.7828 73.8835 30.6995C73.2681 29.6161 72.9605 28.3768 72.9605 26.9815C72.9605 25.5515 73.2725 24.2991 73.8965 23.2245C74.5291 22.1498 75.4045 21.3135 76.5225 20.7155C77.6405 20.1088 78.9231 19.8055 80.3705 19.8055C81.8611 19.8055 83.1481 20.1088 84.2315 20.7155C85.3235 21.3221 86.1641 22.1671 86.7535 23.2505C87.3428 24.3251 87.6375 25.5775 87.6375 27.0075C87.6375 27.1895 87.6331 27.3845 87.6245 27.5925C87.6158 27.8005 87.6028 27.9521 87.5855 28.0475H74.8455ZM97.2812 34.1315C95.8252 34.1315 94.5382 33.8325 93.4202 33.2345C92.3022 32.6365 91.4269 31.7958 90.7942 30.7125C90.1616 29.6291 89.8452 28.3595 89.8452 26.9035C89.8452 25.4561 90.1616 24.1995 90.7942 23.1335C91.4269 22.0675 92.3022 21.2485 93.4202 20.6765C94.5382 20.0958 95.8252 19.8055 97.2812 19.8055C98.3732 19.8055 99.3396 19.9658 100.18 20.2865C101.021 20.6071 101.727 21.0361 102.299 21.5735C102.88 22.1021 103.322 22.6871 103.625 23.3285C103.929 23.9611 104.08 24.5938 104.08 25.2265C104.08 25.2438 104.08 25.2611 104.08 25.2785C104.08 25.2958 104.08 25.3131 104.08 25.3305H100.687C100.687 25.2871 100.683 25.2395 100.674 25.1875C100.666 25.1355 100.657 25.0835 100.648 25.0315C100.579 24.5895 100.401 24.1908 100.115 23.8355C99.8292 23.4715 99.4479 23.1811 98.9712 22.9645C98.4946 22.7478 97.9182 22.6395 97.2422 22.6395C96.5229 22.6395 95.8642 22.7998 95.2662 23.1205C94.6769 23.4325 94.2046 23.9048 93.8492 24.5375C93.5026 25.1701 93.3292 25.9588 93.3292 26.9035C93.3292 27.8395 93.5026 28.6368 93.8492 29.2955C94.1959 29.9455 94.6639 30.4438 95.2532 30.7905C95.8512 31.1285 96.5142 31.2975 97.2422 31.2975C98.0136 31.2975 98.6419 31.1805 99.1272 30.9465C99.6212 30.7038 99.9939 30.3831 100.245 29.9845C100.497 29.5771 100.64 29.1351 100.674 28.6585H104.08C104.08 29.2998 103.933 29.9455 103.638 30.5955C103.344 31.2368 102.91 31.8261 102.338 32.3635C101.766 32.9008 101.056 33.3298 100.206 33.6505C99.3656 33.9711 98.3906 34.1315 97.2812 34.1315ZM112.486 34.1315C111.663 34.1315 110.879 34.0405 110.133 33.8585C109.397 33.6765 108.738 33.4035 108.157 33.0395C107.585 32.6755 107.13 32.2248 106.792 31.6875C106.463 31.1415 106.298 30.5131 106.298 29.8025C106.298 29.7505 106.298 29.6985 106.298 29.6465C106.298 29.5945 106.298 29.5468 106.298 29.5035H109.704C109.704 29.5468 109.704 29.5858 109.704 29.6205C109.704 29.6465 109.704 29.6855 109.704 29.7375C109.704 30.3008 109.96 30.7255 110.471 31.0115C110.991 31.2888 111.698 31.4275 112.59 31.4275C113.076 31.4275 113.531 31.3755 113.955 31.2715C114.389 31.1675 114.735 31.0071 114.995 30.7905C115.264 30.5738 115.398 30.2965 115.398 29.9585C115.398 29.4125 115.117 29.0225 114.553 28.7885C113.999 28.5545 113.123 28.3421 111.927 28.1515C111.269 28.0388 110.619 27.8871 109.977 27.6965C109.336 27.5058 108.751 27.2501 108.222 26.9295C107.702 26.6088 107.282 26.2101 106.961 25.7335C106.649 25.2568 106.493 24.6761 106.493 23.9915C106.493 23.0815 106.762 22.3188 107.299 21.7035C107.845 21.0795 108.573 20.6071 109.483 20.2865C110.402 19.9658 111.412 19.8055 112.512 19.8055C113.57 19.8055 114.553 19.9788 115.463 20.3255C116.373 20.6721 117.106 21.1705 117.66 21.8205C118.224 22.4705 118.505 23.2548 118.505 24.1735C118.505 24.2081 118.505 24.2471 118.505 24.2905C118.505 24.3251 118.505 24.3555 118.505 24.3815H115.125C115.125 24.3555 115.125 24.3295 115.125 24.3035C115.125 24.2775 115.125 24.2471 115.125 24.2125C115.125 23.8138 115 23.4888 114.748 23.2375C114.497 22.9861 114.172 22.7998 113.773 22.6785C113.375 22.5571 112.954 22.4965 112.512 22.4965C112.122 22.4965 111.719 22.5398 111.303 22.6265C110.887 22.7045 110.541 22.8475 110.263 23.0555C109.986 23.2548 109.847 23.5365 109.847 23.9005C109.847 24.2471 109.99 24.5288 110.276 24.7455C110.562 24.9621 110.961 25.1441 111.472 25.2915C111.984 25.4301 112.573 25.5558 113.24 25.6685C113.873 25.7725 114.51 25.9155 115.151 26.0975C115.801 26.2795 116.395 26.5221 116.932 26.8255C117.47 27.1288 117.903 27.5275 118.232 28.0215C118.57 28.5068 118.739 29.1091 118.739 29.8285C118.739 30.5911 118.566 31.2411 118.219 31.7785C117.873 32.3158 117.4 32.7621 116.802 33.1175C116.213 33.4641 115.546 33.7198 114.8 33.8845C114.055 34.0491 113.284 34.1315 112.486 34.1315ZM126.292 34.1315C125.26 34.1315 124.355 33.9711 123.575 33.6505C122.795 33.3211 122.184 32.8488 121.742 32.2335C121.3 31.6181 121.079 30.8771 121.079 30.0105C121.079 29.0658 121.334 28.2901 121.846 27.6835C122.366 27.0681 123.063 26.5958 123.939 26.2665C124.814 25.9285 125.785 25.7118 126.851 25.6165C128.428 25.4605 129.529 25.3131 130.153 25.1745C130.785 25.0271 131.102 24.7931 131.102 24.4725C131.102 24.4638 131.102 24.4595 131.102 24.4595C131.102 24.4508 131.102 24.4465 131.102 24.4465C131.102 23.8398 130.829 23.3718 130.283 23.0425C129.737 22.7131 128.965 22.5485 127.969 22.5485C126.92 22.5485 126.114 22.7348 125.551 23.1075C124.996 23.4715 124.719 24.0521 124.719 24.8495H121.339C121.339 23.7661 121.625 22.8518 122.197 22.1065C122.777 21.3525 123.57 20.7805 124.576 20.3905C125.581 20.0005 126.721 19.8055 127.995 19.8055C129.182 19.8055 130.27 19.9831 131.258 20.3385C132.246 20.6938 133.039 21.2311 133.637 21.9505C134.235 22.6698 134.534 23.5668 134.534 24.6415C134.534 24.8235 134.534 25.0055 134.534 25.1875C134.534 25.3695 134.534 25.5515 134.534 25.7335V30.9335C134.534 31.2628 134.542 31.5878 134.56 31.9085C134.586 32.2205 134.633 32.5021 134.703 32.7535C134.789 33.0308 134.893 33.2648 135.015 33.4555C135.136 33.6461 135.231 33.7761 135.301 33.8455H131.921C131.86 33.7848 131.773 33.6678 131.661 33.4945C131.557 33.3125 131.461 33.1045 131.375 32.8705C131.288 32.6105 131.223 32.3331 131.18 32.0385C131.136 31.7351 131.115 31.4015 131.115 31.0375L131.791 31.5055C131.531 32.0341 131.132 32.4978 130.595 32.8965C130.066 33.2865 129.433 33.5898 128.697 33.8065C127.96 34.0231 127.158 34.1315 126.292 34.1315ZM127.124 31.4405C127.834 31.4405 128.493 31.3191 129.1 31.0765C129.706 30.8338 130.196 30.4611 130.569 29.9585C130.941 29.4471 131.128 28.7928 131.128 27.9955V26.1495L131.96 27.0855C131.405 27.2935 130.738 27.4668 129.958 27.6055C129.178 27.7355 128.389 27.8395 127.592 27.9175C126.569 28.0128 125.798 28.1905 125.278 28.4505C124.766 28.7105 124.511 29.1351 124.511 29.7245C124.511 30.2965 124.727 30.7255 125.161 31.0115C125.594 31.2975 126.248 31.4405 127.124 31.4405ZM147.471 33.8455V27.7225C147.471 27.3758 147.471 27.0725 147.471 26.8125C147.471 26.5438 147.471 26.3011 147.471 26.0845C147.471 25.4605 147.38 24.9015 147.198 24.4075C147.025 23.9048 146.722 23.5105 146.288 23.2245C145.864 22.9385 145.274 22.7955 144.52 22.7955C143.862 22.7955 143.277 22.9558 142.765 23.2765C142.254 23.5885 141.851 24.0218 141.556 24.5765C141.27 25.1225 141.127 25.7551 141.127 26.4745L139.97 25.7595C139.97 24.6068 140.23 23.5841 140.75 22.6915C141.279 21.7901 141.985 21.0838 142.869 20.5725C143.753 20.0611 144.733 19.8055 145.807 19.8055C146.917 19.8055 147.848 20.0221 148.602 20.4555C149.365 20.8888 149.937 21.5041 150.318 22.3015C150.708 23.0988 150.903 24.0348 150.903 25.1095C150.903 25.5255 150.903 25.9935 150.903 26.5135C150.903 27.0335 150.903 27.5448 150.903 28.0475V33.8455H147.471ZM137.708 33.8455V20.0395H141.127V33.8455H137.708ZM154.627 39.7735C154.219 39.7735 153.855 39.7518 153.535 39.7085C153.214 39.6738 153.015 39.6391 152.937 39.6045V36.9395C153.049 36.9915 153.24 37.0305 153.509 37.0565C153.786 37.0911 154.072 37.1085 154.367 37.1085C154.843 37.1085 155.255 37.0131 155.602 36.8225C155.957 36.6318 156.26 36.3675 156.512 36.0295C156.763 35.7001 156.962 35.3145 157.11 34.8725L157.409 34.0015L152.651 20.0395H156.226L159.489 31.5575H159.073L162.258 20.0395H165.768L160.932 34.6905C160.594 35.7045 160.182 36.5928 159.697 37.3555C159.22 38.1181 158.583 38.7118 157.786 39.1365C156.988 39.5611 155.935 39.7735 154.627 39.7735Z" fill="black"/>
<g clip-path="url(#clip0_2202_38)">
<g filter="url(#filter0_b_2202_38)">
<circle cx="24" cy="24.0566" r="24" fill="url(#paint0_linear_2202_38)" fill-opacity="0.15"/>
<circle cx="24" cy="24.0566" r="23.5" stroke="url(#paint1_linear_2202_38)"/>
</g>
<path fill-rule="evenodd" clip-rule="evenodd" d="M27.4245 35.7822L35.2214 33.0533V14.798L27.4245 12.0691V35.7822ZM24.9795 31.4165L18.6168 33.6401V14.2923L24.9795 16.5206V31.4165ZM16.1764 29.1642L11.8496 30.6755V17.416L16.1764 18.9272V29.1642Z" fill="black"/>
</g>
<defs>
<filter id="filter0_b_2202_38" x="-82" y="-81.9434" width="212" height="212" filterUnits="userSpaceOnUse" color-interpolation-filters="sRGB">
<feFlood flood-opacity="0" result="BackgroundImageFix"/>
<feGaussianBlur in="BackgroundImageFix" stdDeviation="41"/>
<feComposite in2="SourceAlpha" operator="in" result="effect1_backgroundBlur_2202_38"/>
<feBlend mode="normal" in="SourceGraphic" in2="effect1_backgroundBlur_2202_38" result="shape"/>
</filter>
<linearGradient id="paint0_linear_2202_38" x1="2.83326" y1="0.0566335" x2="68.2513" y2="14.4612" gradientUnits="userSpaceOnUse">
<stop stop-color="#91B66B" stop-opacity="0.56"/>
<stop offset="1" stop-color="#7FC573" stop-opacity="0.55"/>
</linearGradient>
<linearGradient id="paint1_linear_2202_38" x1="39.9235" y1="68.3411" x2="83.7755" y2="-66.9097" gradientUnits="userSpaceOnUse">
<stop stop-color="white" stop-opacity="0"/>
<stop offset="1" stop-color="#BCC0E1" stop-opacity="0.65"/>
</linearGradient>
<clipPath id="clip0_2202_38">
<rect y="0.0566406" width="48" height="48" rx="24" fill="white"/>
</clipPath>
</defs>
</svg>
